<svg width="200" height="200" viewBox="0 0 200 200" fill="none" xmlns="http://www.w3.org/2000/svg">
<g clip-path="url(#clip0_2_15)">
<mask id="mask0_2_15" style="mask-type:luminance" maskUnits="userSpaceOnUse" x="0" y="0" width="200" height="200">
<path d="M200 200L200 0L0 -8.74228e-06L-8.74228e-06 200L200 200Z" fill="white"/>
</mask>
<g mask="url(#mask0_2_15)">
<path fill-rule="evenodd" clip-rule="evenodd" d="M200 120L200 80L90 80C78.954 80 70 71.0457 70 60C70 48.9543 78.954 40 90 40L200 40L200 0L100 -4.37114e-06C44.772 -6.78523e-06 -1.95702e-06 44.7715 -4.37114e-06 100C-6.78523e-06 155.228 44.772 200 100 200L200 200L200 160L90 160C78.954 160 70 151.046 70 140C70 128.954 78.954 120 90 120L200 120Z" fill="url(#paint0_linear_2_15)"/>
</g>
</g>
<defs>
<linearGradient id="paint0_linear_2_15" x1="200" y1="100" x2="-4.37114e-06" y2="100" gradientUnits="userSpaceOnUse">
<stop stop-color="#2750E1"/>
<stop offset="1" stop-color="#87AAEE"/>
</linearGradient>
<clipPath id="clip0_2_15">
<rect width="200" height="200" fill="white" transform="translate(200) rotate(90)"/>
</clipPath>
</defs>
</svg>
