<svg width="1465" height="768" viewBox="0 0 1465 768" fill="none" xmlns="http://www.w3.org/2000/svg">
<g clip-path="url(#clip0_1_2)">
<rect width="1465" height="768" fill="#CBC8C8"/>
<g clip-path="url(#clip1_1_2)">
<mask id="mask0_1_2" style="mask-type:luminance" maskUnits="userSpaceOnUse" x="-620" y="-811" width="2259" height="2159">
<path d="M1638.08 402.522L866.726 -810.328L-619.482 134.876L151.871 1347.73L1638.08 402.522Z" fill="white"/>
</mask>
<g mask="url(#mask0_1_2)">
<path fill-rule="evenodd" clip-rule="evenodd" d="M1329.54 -82.6182L1175.27 -325.188L357.853 194.674C275.769 246.878 174.697 234.894 132.097 167.91C89.496 100.926 121.499 4.30805 203.582 -47.8956L1021 -567.758L866.726 -810.328L123.622 -337.726C-286.779 -76.717 -446.809 406.382 -233.805 741.301C-20.8041 1076.22 484.573 1136.13 894.975 875.124L1638.08 402.522L1483.81 159.952L666.394 679.814C584.311 732.018 483.24 720.035 440.638 653.05C398.036 586.064 430.04 489.448 512.123 437.244L1329.54 -82.6182Z" fill="url(#paint0_linear_1_2)"/>
</g>
</g>
<mask id="mask1_1_2" style="mask-type:luminance" maskUnits="userSpaceOnUse" x="162" y="395" width="2259" height="2159">
<path d="M2420.05 1607.85L1648.7 395L162.492 1340.2L933.845 2553.05L2420.05 1607.85Z" fill="white"/>
</mask>
<g mask="url(#mask1_1_2)">
<path fill-rule="evenodd" clip-rule="evenodd" d="M2111.51 1122.71L1957.24 880.14L1139.83 1400C1057.74 1452.21 956.671 1440.22 914.071 1373.24C871.47 1306.25 903.473 1209.64 985.556 1157.43L1802.97 637.57L1648.7 395L905.596 867.602C495.195 1128.61 335.165 1611.71 548.169 1946.63C761.17 2281.55 1266.55 2341.46 1676.95 2080.45L2420.05 1607.85L2265.78 1365.28L1448.37 1885.14C1366.28 1937.35 1265.21 1925.36 1222.61 1858.38C1180.01 1791.39 1212.01 1694.78 1294.1 1642.57L2111.51 1122.71Z" fill="url(#paint1_linear_1_2)"/>
</g>
</g>
<defs>
<linearGradient id="paint0_linear_1_2" x1="1252.4" y1="-203.903" x2="-233.806" y2="741.301" gradientUnits="userSpaceOnUse">
<stop stop-color="#2750E1"/>
<stop offset="1" stop-color="#2C54E2" stop-opacity="0"/>
</linearGradient>
<linearGradient id="paint1_linear_1_2" x1="2034.38" y1="1001.42" x2="548.169" y2="1946.63" gradientUnits="userSpaceOnUse">
<stop stop-color="#2750E1"/>
<stop offset="1" stop-color="#2C54E2" stop-opacity="0"/>
</linearGradient>
<clipPath id="clip0_1_2">
<rect width="1465" height="768" fill="white"/>
</clipPath>
<clipPath id="clip1_1_2">
<rect width="1437.35" height="1761.31" fill="white" transform="translate(1033.5 -796.08) rotate(57.5443)"/>
</clipPath>
</defs>
</svg>
